<svg width="14" height="20" viewBox="0 0 14 20" fill="none" xmlns="http://www.w3.org/2000/svg">
<path fill-rule="evenodd" clip-rule="evenodd" d="M2 16.0004V4.00043L5.04689 2.68762V17.3132L2 16.0004ZM0 3.19104C0 2.57488 0.450962 2.05174 1.0602 1.96081L5 0.500434C5.75169 0.388169 7 0.484162 7 1.24416V18.7562C7 19.5162 6.25169 19.6125 5.5 19.5002L1.0602 18.0396C0.450962 17.9487 0 17.4255 0 16.8094V3.19104ZM9 18.4337L9.5342 18.5955C10.2859 18.7078 11 18.1255 11 17.3655V2.17174C11 1.41174 10.2517 0.888087 9.5 1.00021L9 1.10357V18.4337ZM12 17.4878L12.961 17.6684C14 17.6684 14 17.0002 14 16.3761V3.50021C14 3.00021 14 2.33209 12.961 2.33209L12 2.47555V17.4878Z" fill="currentColor"/>
</svg>
