<svg width="20" height="20" viewBox="0 0 20 20" fill="none" xmlns="http://www.w3.org/2000/svg">
<path d="M12 18C12 15.2386 9.76142 13 7 13C4.23858 13 2 15.2386 2 18H12ZM10 5C10 3.34315 8.65685 2 7 2C5.34315 2 4 3.34315 4 5C4 6.65685 5.34315 8 7 8C8.65685 8 10 6.65685 10 5ZM18 18C18 15.2386 15.7614 13 13 13C12.6565 13 12.3214 13.0339 11.998 13.0996C13.2362 14.3623 14 16.0918 14 18H18ZM20 19C20 19.5523 19.5523 20 19 20H1C0.447715 20 0 19.5523 0 19V18C0 14.134 3.13401 11 7 11C8.0744 11 9.09218 11.2423 10.002 11.6748C10.9117 11.2429 11.9284 11 13 11C16.866 11 20 14.134 20 18V19ZM12 5C12 5.90874 11.7557 6.75979 11.332 7.49414C11.8092 7.8141 12.3826 8 13 8C14.6569 8 16 6.65685 16 5C16 3.34315 14.6569 2 13 2C12.3828 2 11.8091 2.18511 11.332 2.50488C11.756 3.2394 12 4.09096 12 5ZM18 5C18 7.76142 15.7614 10 13 10C11.8742 10 10.8354 9.62646 10 8.99902C9.16423 9.62701 8.1259 10 7 10C4.23858 10 2 7.76142 2 5C2 2.23858 4.23858 2.57702e-07 7 0C8.12568 0 9.16431 0.372231 10 1C10.8353 0.372775 11.8744 4.2097e-07 13 0C15.7614 0 18 2.23858 18 5Z" fill="currentColor"/>
</svg>
