<svg width="12" height="13" viewBox="0 0 12 13" fill="none" xmlns="http://www.w3.org/2000/svg">
<path d="M1.75732 2.25732C4.10041 -0.0857735 7.89959 -0.0857735 10.2427 2.25732C12.5858 4.60041 12.5858 8.39959 10.2427 10.7427C7.89959 13.0858 4.10041 13.0858 1.75732 10.7427C-0.585773 8.39959 -0.585773 4.60041 1.75732 2.25732ZM2.20907 3.55749C0.743681 5.4405 0.874972 8.16349 2.60574 9.89426C4.33648 11.625 7.05892 11.7557 8.94193 10.2903L2.20907 3.55749ZM9.39426 3.10574C7.66349 1.37497 4.9405 1.24368 3.05749 2.70907L9.79035 9.44193C11.2557 7.55892 11.125 4.83648 9.39426 3.10574Z" fill="#E50000"/>
</svg>
