<svg width="12" height="13" viewBox="0 0 12 13" fill="none" xmlns="http://www.w3.org/2000/svg">
<path d="M10.8 6.5C10.8 3.84903 8.65097 1.7 6 1.7C3.34903 1.7 1.2 3.84903 1.2 6.5C1.2 9.15097 3.34903 11.3 6 11.3C8.65097 11.3 10.8 9.15097 10.8 6.5ZM7.37578 4.87578C7.6101 4.64147 7.9899 4.64147 8.22422 4.87578C8.45853 5.1101 8.45853 5.4899 8.22422 5.72422L5.82422 8.12422C5.5899 8.35853 5.2101 8.35853 4.97578 8.12422L3.77578 6.92422C3.54147 6.6899 3.54147 6.3101 3.77578 6.07578C4.0101 5.84147 4.3899 5.84147 4.62422 6.07578L5.4 6.85156L7.37578 4.87578ZM12 6.5C12 9.81371 9.31371 12.5 6 12.5C2.68629 12.5 0 9.81371 0 6.5C0 3.18629 2.68629 0.5 6 0.5C9.31371 0.5 12 3.18629 12 6.5Z" fill="#FF7832"/>
</svg>
